# xmcd
# 
# Track frame offsets:
#     150
#     15485
#     36362
#     57902
#     74507
#     98295
#     114872
#     130877
#     146867
#     164202
#     185732
#     200920
# 
# Disc length: 3350
# 
# Revision: 0
# Processed by: cddbd v1.5.2PL0 Copyright (c) Steve Scherf et al.
# Submitted via: BonkEnc v1.0.8
# 
DISCID=b40d140c
DTITLE=Johnny Winter - A Rock n' Roll Collection (Disk 1 of 2)
DYEAR=1994
DGENRE=Blues
TTITLE0=Johnny B. Goode (Live)
TTITLE1=Good Morning Little School Girl (Live)
TTITLE2=I'll Drown In My Tears
TTITLE3=When You Got a Good Friend
TTITLE4=Be Careful With a Fool
TTITLE5=Miss Ann
TTITLE6=Hustled Down In Texas
TTITLE7=Rock and Roll, Hoochie Koo
TTITLE8=Rock Me Baby
TTITLE9=Rock and Roll
TTITLE10=Sitting In the Jail House
TTITLE11=Baby, Whatcha Want Me To Do (Live)
EXTD=LABEL =Sony Music Entertainment, Inc.\nID =c2k46985\nUPC =none\nCOPYRIGHT =1994
EXTT0=
EXTT1=
EXTT2=
EXTT3=
EXTT4=
EXTT5=
EXTT6=
EXTT7=
EXTT8=
EXTT9=
EXTT10=
EXTT11=
PLAYORDER=
